# Blender v2.79 (sub 0) OBJ File: ''
# www.blender.org
mtllib box.mtl
o Box_low
v 0.506522 -0.899999 -1.167666
v 0.506522 -0.642041 -1.167666
v 0.601184 -0.642281 -0.927960
v 0.601196 -0.899999 -0.927918
v 0.266912 -0.899999 -1.073040
v 0.266816 -0.642281 -1.073004
v 0.361478 -0.899999 -0.833298
v 0.266816 0.642283 -1.073004
v 0.506522 0.642043 -1.167660
v 1.073006 -0.642282 0.266820
v 1.072988 -0.900000 0.266772
v 0.833300 -0.900000 0.361476
v -0.833302 -0.899999 -0.361476
v -0.928054 -0.899999 -0.601146
v 0.506522 0.900001 -1.167660
v 0.601196 0.900001 -0.927918
v 0.601184 0.642283 -0.927960
v 0.266912 0.900001 -1.073040
v 0.361478 0.900001 -0.833298
v 0.547280 0.642283 -0.906672
v 0.547280 -0.642281 -0.906672
v 0.288104 0.642283 -1.019106
v -0.906676 0.642283 -0.547284
v -0.927958 0.642283 -0.601182
v 0.361478 0.842047 -0.833298
v 0.833300 0.842046 0.361477
v 0.833300 0.900000 0.361477
v 1.072988 0.900000 0.266772
v 1.073006 0.642282 0.266820
v -0.928054 0.900001 -0.601146
v 0.288104 -0.642281 -1.019106
v 1.019102 -0.642282 0.288102
v 1.167662 -0.900000 0.506520
v 1.167662 -0.642042 0.506520
v 0.927962 -0.642282 0.601182
v 0.928052 -0.900000 0.601146
v 0.833300 -0.842052 0.361476
v 0.361478 -0.842052 -0.833298
v 1.167662 0.642042 0.506520
v 0.927962 0.642282 0.601183
v -0.266914 -0.900000 1.073040
v -0.361480 -0.900000 0.833298
v 1.167662 0.900000 0.506520
v 0.928052 0.900000 0.601147
v 1.019102 0.642282 0.288103
v -0.266818 0.642282 1.073004
v -0.288100 0.642282 1.019101
v 0.906674 0.642282 0.547278
v -0.361480 0.900000 0.833299
v -0.266914 0.900000 1.073040
v 0.906674 -0.642282 0.547278
v -1.167664 -0.899999 -0.506520
v -1.072984 -0.899999 -0.266772
v -1.073002 -0.642282 -0.266820
v -1.167664 -0.642041 -0.506520
v -0.927958 -0.642281 -0.601182
v -0.906676 -0.642282 -0.547284
v -1.167664 0.642042 -0.506519
v -0.601180 -0.642282 0.927960
v -0.601198 -0.900000 0.927918
v -1.167664 0.900001 -0.506519
v -1.073002 0.642283 -0.266820
v -1.072984 0.900001 -0.266771
v -0.833302 0.900001 -0.361476
v -1.019104 0.642283 -0.288102
v -1.019104 -0.642282 -0.288102
v -0.833302 0.842046 -0.361476
v -0.361480 0.842046 0.833299
v -0.601180 0.642282 0.927960
v -0.601198 0.900000 0.927918
v -0.547282 -0.642282 0.906672
v -0.506518 -0.900000 1.167660
v -0.506518 -0.642042 1.167660
v -0.266818 -0.642282 1.073004
v -0.288100 -0.642282 1.019100
v -0.361480 -0.842052 0.833298
v -0.833302 -0.842052 -0.361476
v -0.506518 0.642042 1.167660
v -0.506518 0.900000 1.167660
v -0.547282 0.642282 0.906673
vt 0.275400 0.275400
vt 0.312300 0.312300
vt 0.275400 0.312300
vt 0.010000 0.798300
vt 0.046900 0.761400
vt 0.046900 0.798300
vt 0.230600 0.532900
vt 0.267400 0.496000
vt 0.267400 0.532900
vt 0.230600 0.798300
vt 0.275400 0.496000
vt 0.312300 0.496000
vt 0.046900 0.532900
vt 0.230600 0.496000
vt 0.267400 0.312300
vt 0.230600 0.312300
vt 0.532900 0.275400
vt 0.496000 0.312300
vt 0.496000 0.275400
vt 0.267400 0.798300
vt 0.230600 0.761400
vt 0.267400 0.761400
vt 0.010000 0.230600
vt 0.046900 0.267400
vt 0.010000 0.267400
vt 0.748500 0.900100
vt 0.932200 0.891800
vt 0.932200 0.900100
vt 0.756500 0.499400
vt 0.940200 0.491100
vt 0.940200 0.499400
vt 0.756500 0.436600
vt 0.940200 0.428300
vt 0.940200 0.436600
vt 0.312300 0.275400
vt 0.532900 0.496000
vt 0.496000 0.496000
vt 0.046900 0.230600
vt 0.230600 0.267400
vt 0.230600 0.577700
vt 0.940200 0.755200
vt 0.756500 0.746900
vt 0.940200 0.746900
vt 0.724600 0.891800
vt 0.540800 0.900100
vt 0.540800 0.891800
vt 0.275400 0.532900
vt 0.312300 0.532900
vt 0.532900 0.267400
vt 0.496000 0.230600
vt 0.532900 0.230600
vt 0.010000 0.496000
vt 0.010000 0.532900
vt 0.724600 0.819400
vt 0.540800 0.827600
vt 0.540800 0.819400
vt 0.496000 0.267400
vt 0.312300 0.230600
vt 0.046900 0.312300
vt 0.046900 0.496000
vt 0.532900 0.532900
vt 0.275400 0.267400
vt 0.312300 0.267400
vt 0.267400 0.231900
vt 0.267400 0.267400
vt 0.940200 0.827600
vt 0.756500 0.819400
vt 0.940200 0.819400
vt 0.540800 0.706700
vt 0.724600 0.715000
vt 0.540800 0.715000
vt 0.496000 0.532900
vt 0.230600 0.048100
vt 0.230600 0.231900
vt 0.312300 0.046900
vt 0.275400 0.230600
vt 0.275400 0.046800
vt 0.756500 0.396000
vt 0.940200 0.404300
vt 0.756500 0.404300
vt 0.540800 0.924000
vt 0.724600 0.932300
vt 0.540800 0.932300
vt 0.540800 0.267400
vt 0.577700 0.230600
vt 0.577700 0.267400
vt 0.010000 0.540800
vt 0.046900 0.577700
vt 0.010000 0.577700
vt 0.230600 0.275400
vt 0.267400 0.275400
vt 0.756500 0.275400
vt 0.940200 0.283700
vt 0.756500 0.283700
vt 0.046900 0.540800
vt 0.577700 0.046900
vt 0.540800 0.230600
vt 0.540800 0.046900
vt 0.046900 0.275400
vt 0.010000 0.761400
vt 0.798300 0.267400
vt 0.761400 0.230600
vt 0.798300 0.230600
vt 0.267400 0.540800
vt 0.230600 0.540800
vt 0.046900 0.010000
vt 0.010000 0.046800
vt 0.010000 0.010000
vt 0.940200 0.660200
vt 0.756500 0.651900
vt 0.940200 0.651900
vt 0.756500 0.611700
vt 0.940200 0.620000
vt 0.756500 0.620000
vt 0.761400 0.267400
vt 0.761400 0.046900
vt 0.046900 0.046900
vt 0.748500 0.795400
vt 0.932200 0.787100
vt 0.932200 0.795400
vt 0.540800 0.964500
vt 0.724600 0.956200
vt 0.724600 0.964500
vt 0.540800 0.010000
vt 0.532900 0.010000
vt 0.496000 0.046900
vt 0.496000 0.010000
vt 0.010000 0.312300
vt 0.010000 0.275400
vt 0.940200 0.706700
vt 0.756500 0.715000
vt 0.756500 0.706700
vt 0.940200 0.579800
vt 0.756500 0.571500
vt 0.940200 0.571500
vt 0.532900 0.046800
vt 0.798300 0.010000
vt 0.761400 0.010000
vt 0.275400 0.010000
vt 0.267400 0.048100
vt 0.230600 0.010000
vt 0.267400 0.010000
vt 0.748500 0.867800
vt 0.932200 0.859600
vt 0.932200 0.867800
vt 0.577700 0.010000
vt 0.724600 0.787100
vt 0.540800 0.795400
vt 0.540800 0.787100
vt 0.540800 0.859600
vt 0.724600 0.867800
vt 0.540800 0.867800
vt 0.940200 0.364100
vt 0.756500 0.355800
vt 0.940200 0.355800
vt 0.540800 0.755200
vt 0.724600 0.746900
vt 0.724600 0.755200
vt 0.940200 0.539600
vt 0.756500 0.531300
vt 0.940200 0.531300
vt 0.940200 0.323900
vt 0.756500 0.315600
vt 0.940200 0.315600
vt 0.275400 0.724600
vt 0.459200 0.540800
vt 0.459200 0.724600
vt 0.540800 0.674800
vt 0.724600 0.491100
vt 0.724600 0.674800
vt 0.193700 0.990000
vt 0.010000 0.806300
vt 0.193700 0.806300
vt 0.275400 0.756500
vt 0.459200 0.940200
vt 0.275400 0.940200
vt 0.540800 0.275400
vt 0.724600 0.459200
vt 0.540800 0.459200
vt 0.990000 0.010000
vt 0.806300 0.193700
vt 0.806300 0.010000
vt 0.532900 0.312300
vt 0.748500 0.891800
vt 0.756500 0.491100
vt 0.756500 0.428300
vt 0.267400 0.577700
vt 0.756500 0.755200
vt 0.724600 0.900100
vt 0.724600 0.827600
vt 0.756500 0.827600
vt 0.724600 0.706700
vt 0.940200 0.396000
vt 0.724600 0.924000
vt 0.940200 0.275400
vt 0.756500 0.660200
vt 0.940200 0.611700
vt 0.798300 0.046900
vt 0.748500 0.787100
vt 0.540800 0.956200
vt 0.940200 0.715000
vt 0.756500 0.579800
vt 0.312300 0.010000
vt 0.748500 0.859600
vt 0.724600 0.795400
vt 0.724600 0.859600
vt 0.756500 0.364100
vt 0.540800 0.746900
vt 0.756500 0.539600
vt 0.756500 0.323900
vt 0.275400 0.540800
vt 0.540800 0.491100
vt 0.010000 0.990000
vt 0.459200 0.756500
vt 0.724600 0.275400
vt 0.990000 0.193700
vn 0.9301 -0.0000 -0.3673
vn -0.3673 -0.0000 -0.9301
vn 0.0000 -1.0000 -0.0000
vn -0.0000 1.0000 0.0000
vn 0.3673 -0.0000 0.9301
vn -0.9301 0.0000 0.3673
vn -0.9301 -0.0000 0.3674
vn -0.3672 0.0000 -0.9301
vn -0.3674 0.0000 -0.9301
vn 0.9301 0.0000 -0.3672
usemtl wire_028149177
s 1
f 1/1/1 3/2/1 4/3/1
f 1/4/2 6/5/2 2/6/2
f 4/7/3 5/8/3 1/9/3
f 6/5/2 9/10/2 2/6/2
f 11/11/1 3/2/1 10/12/1
f 11/13/3 7/14/3 4/7/3
f 14/15/3 7/14/3 13/16/3
f 15/17/1 17/18/1 9/19/1
f 15/20/2 8/21/2 18/22/2
f 18/23/4 16/24/4 15/25/4
f 21/26/5 17/27/5 20/28/5
f 23/29/3 8/30/3 22/31/3
f 26/32/6 19/33/6 25/34/6
f 9/19/1 3/2/1 2/35/1
f 17/18/1 28/36/1 29/37/1
f 19/38/4 28/39/4 16/24/4
f 24/40/2 18/22/2 8/21/2
f 31/41/7 8/42/7 6/43/7
f 3/44/4 32/45/4 10/46/4
f 33/47/1 10/12/1 34/48/1
f 33/49/5 35/50/5 36/51/5
f 36/52/3 11/13/3 33/53/3
f 38/54/6 12/55/6 37/56/6
f 34/57/5 40/58/5 35/50/5
f 36/52/3 42/59/3 12/60/3
f 43/61/1 29/37/1 28/36/1
f 43/62/5 40/58/5 39/63/5
f 28/39/4 44/64/4 43/65/4
f 32/66/8 29/67/8 10/68/8
f 47/69/3 40/70/3 46/71/3
f 34/48/1 29/37/1 39/72/1
f 49/73/4 44/64/4 27/74/4
f 46/75/5 44/76/5 50/77/5
f 48/78/6 35/79/6 40/80/6
f 17/81/3 45/82/3 20/83/3
f 52/84/6 54/85/6 55/86/6
f 52/87/2 56/88/2 14/89/2
f 14/15/3 53/90/3 52/91/3
f 57/92/4 6/93/4 56/94/4
f 55/95/2 24/40/2 56/88/2
f 59/96/6 53/97/6 60/98/6
f 53/90/3 42/59/3 60/99/3
f 56/88/2 5/100/2 14/89/2
f 61/101/6 62/102/6 63/103/6
f 61/104/2 24/40/2 58/105/2
f 63/106/4 30/107/4 61/108/4
f 62/109/5 66/110/5 65/111/5
f 64/112/1 68/113/1 67/114/1
f 55/86/6 62/102/6 58/115/6
f 69/116/6 63/103/6 62/102/6
f 63/106/4 49/73/4 64/117/4
f 19/38/4 30/107/4 64/117/4
f 24/118/1 57/119/1 56/120/1
f 59/121/4 66/122/4 54/123/4
f 72/124/6 59/96/6 60/98/6
f 72/125/5 74/126/5 73/127/5
f 60/99/3 41/128/3 72/129/3
f 35/130/4 75/131/4 74/132/4
f 42/133/1 77/134/1 76/135/1
f 46/75/5 73/127/5 74/126/5
f 36/51/5 74/126/5 41/136/5
f 79/137/6 69/116/6 78/138/6
f 79/139/5 46/75/5 50/77/5
f 50/140/4 70/141/4 79/142/4
f 69/143/9 71/144/9 59/145/2
f 69/116/6 73/146/6 78/138/6
f 74/147/10 47/148/10 46/149/10
f 65/150/3 69/151/3 62/152/3
f 38/153/5 13/154/5 7/155/5
f 64/156/5 25/157/5 19/158/5
f 12/159/2 76/160/2 37/161/2
f 26/162/2 49/163/2 27/164/2
f 76/165/3 38/166/3 37/167/3
f 47/168/5 51/169/5 48/170/5
f 45/171/1 21/172/1 20/173/1
f 68/174/4 25/175/4 67/176/4
f 23/177/2 31/178/2 57/179/2
f 80/180/6 66/181/6 71/182/6
f 1/1/1 2/35/1 3/2/1
f 1/4/2 5/100/2 6/5/2
f 4/7/3 7/14/3 5/8/3
f 6/5/2 8/21/2 9/10/2
f 11/11/1 4/3/1 3/2/1
f 11/13/3 12/60/3 7/14/3
f 14/15/3 5/8/3 7/14/3
f 15/17/1 16/183/1 17/18/1
f 15/20/2 9/10/2 8/21/2
f 18/23/4 19/38/4 16/24/4
f 21/26/5 3/184/5 17/27/5
f 23/29/3 24/185/3 8/30/3
f 26/32/6 27/186/6 19/33/6
f 9/19/1 17/18/1 3/2/1
f 17/18/1 16/183/1 28/36/1
f 19/38/4 27/74/4 28/39/4
f 24/40/2 30/187/2 18/22/2
f 31/41/7 22/188/7 8/42/7
f 3/44/4 21/189/4 32/45/4
f 33/47/1 11/11/1 10/12/1
f 33/49/5 34/57/5 35/50/5
f 36/52/3 12/60/3 11/13/3
f 38/54/6 7/190/6 12/55/6
f 34/57/5 39/63/5 40/58/5
f 36/52/3 41/128/3 42/59/3
f 43/61/1 39/72/1 29/37/1
f 43/62/5 44/76/5 40/58/5
f 28/39/4 27/74/4 44/64/4
f 32/66/8 45/191/8 29/67/8
f 47/69/3 48/192/3 40/70/3
f 34/48/1 10/12/1 29/37/1
f 49/73/4 50/140/4 44/64/4
f 46/75/5 40/58/5 44/76/5
f 48/78/6 51/193/6 35/79/6
f 17/81/3 29/194/3 45/82/3
f 52/84/6 53/97/6 54/85/6
f 52/87/2 55/95/2 56/88/2
f 14/15/3 13/16/3 53/90/3
f 57/92/4 31/195/4 6/93/4
f 55/95/2 58/105/2 24/40/2
f 59/96/6 54/85/6 53/97/6
f 53/90/3 13/16/3 42/59/3
f 56/88/2 6/5/2 5/100/2
f 61/101/6 58/115/6 62/102/6
f 61/104/2 30/187/2 24/40/2
f 63/106/4 64/117/4 30/107/4
f 62/109/5 54/196/5 66/110/5
f 64/112/1 49/197/1 68/113/1
f 55/86/6 54/85/6 62/102/6
f 69/116/6 70/198/6 63/103/6
f 63/106/4 70/141/4 49/73/4
f 19/38/4 18/23/4 30/107/4
f 24/118/1 23/199/1 57/119/1
f 59/121/4 71/200/4 66/122/4
f 72/124/6 73/146/6 59/96/6
f 72/125/5 41/136/5 74/126/5
f 60/99/3 42/59/3 41/128/3
f 35/130/4 51/201/4 75/131/4
f 42/133/1 13/202/1 77/134/1
f 46/75/5 78/203/5 73/127/5
f 36/51/5 35/50/5 74/126/5
f 79/137/6 70/198/6 69/116/6
f 79/139/5 78/203/5 46/75/5
f 50/140/4 49/73/4 70/141/4
f 69/143/9 80/204/9 71/144/9
f 69/116/6 59/96/6 73/146/6
f 74/147/10 75/205/10 47/148/10
f 65/150/3 80/206/3 69/151/3
f 38/153/5 77/207/5 13/154/5
f 64/156/5 67/208/5 25/157/5
f 12/159/2 42/209/2 76/160/2
f 26/162/2 68/210/2 49/163/2
f 76/165/3 77/211/3 38/166/3
f 47/168/5 75/212/5 51/169/5
f 45/171/1 32/213/1 21/172/1
f 68/174/4 26/214/4 25/175/4
f 23/177/2 22/215/2 31/178/2
f 80/180/6 65/216/6 66/181/6
