<svg xmlns="http://www.w3.org/2000/svg" viewBox="0 0 32 32"><path d="M13.192 22.862l3.097-5.363c.178-.31.508-.5.865-.5h6.185c.31 0 .557.28.496.583C23.098 21.237 19.868 24 16 24c-.892 0-1.75-.147-2.552-.418-.293-.099-.41-.452-.256-.719M8 16a7.968 7.968 0 0 1 2.712-5.987c.232-.205.601-.13.756.138l3.088 5.35c.178.308.178.69 0 1l-3.088 5.348c-.155.268-.524.343-.756.137A7.967 7.967 0 0 1 8 16m15.339-1h-6.185a.999.999 0 0 1-.865-.5l-3.097-5.364c-.154-.267-.036-.62.256-.719A7.984 7.984 0 0 1 16 8c3.868 0 7.098 2.762 7.835 6.416.061.303-.186.584-.496.584m4.304.271l-1.73-.519a9.699 9.699 0 0 0-.17-.97l1.448-1.08a.499.499 0 0 0 .17-.57l-.17-.47a.494.494 0 0 0-.499-.329l-1.805.103a10.39 10.39 0 0 0-.492-.85l.993-1.513a.499.499 0 0 0-.035-.595l-.322-.383a.5.5 0 0 0-.58-.138l-1.667.717a9.979 9.979 0 0 0-.748-.628l.417-1.766a.503.503 0 0 0-.237-.548l-.433-.25a.5.5 0 0 0-.592.07l-1.309 1.232a9.967 9.967 0 0 0-.933-.339l-.21-1.786a.499.499 0 0 0-.409-.433l-.492-.087a.495.495 0 0 0-.534.267l-.814 1.62c-.164-.009-.325-.026-.49-.026-.166 0-.327.017-.491.025l-.814-1.619a.496.496 0 0 0-.533-.267l-.492.087a.499.499 0 0 0-.41.433l-.21 1.786a9.967 9.967 0 0 0-.933.34L10.809 5.55a.502.502 0 0 0-.593-.069l-.433.25a.503.503 0 0 0-.237.548l.417 1.766c-.259.197-.509.407-.748.628l-1.667-.717a.5.5 0 0 0-.58.138l-.321.383a.499.499 0 0 0-.036.595l.994 1.512c-.178.275-.342.56-.493.851l-1.805-.103a.498.498 0 0 0-.498.328l-.171.47a.498.498 0 0 0 .171.571l1.447 1.08c-.072.317-.128.641-.17.97l-1.73.52a.5.5 0 0 0-.356.478v.5c0 .22.145.415.356.48l1.73.517c.041.33.098.653.17.971l-1.447 1.08a.5.5 0 0 0-.171.571l.171.47a.5.5 0 0 0 .469.33c.01 0 .019 0 .029-.002l1.805-.104c.151.292.315.576.493.851l-.994 1.511a.502.502 0 0 0 .035.596l.321.384a.502.502 0 0 0 .581.138l1.667-.719c.239.222.489.432.748.63l-.417 1.764a.501.501 0 0 0 .237.548l.433.25a.5.5 0 0 0 .593-.068l1.308-1.233c.304.128.615.241.933.34l.21 1.786a.5.5 0 0 0 .41.433l.492.087a.5.5 0 0 0 .533-.268l.814-1.618c.164.008.325.025.491.025.165 0 .326-.017.49-.025l.814 1.618a.5.5 0 0 0 .534.268l.492-.087a.5.5 0 0 0 .409-.433l.21-1.786c.318-.099.629-.212.933-.34l1.309 1.233a.5.5 0 0 0 .592.068l.433-.25a.501.501 0 0 0 .237-.548l-.417-1.764c.26-.198.51-.408.748-.63l1.667.72a.5.5 0 0 0 .581-.138l.321-.385a.5.5 0 0 0 .035-.596l-.993-1.51c.177-.276.341-.56.492-.852l1.805.104a.502.502 0 0 0 .499-.328l.17-.47a.5.5 0 0 0-.17-.572l-1.448-1.079c.073-.318.129-.642.17-.97l1.73-.519A.501.501 0 0 0 28 16.25v-.5a.5.5 0 0 0-.357-.479"/></svg>