<?xml version="1.0" encoding="UTF-8"?>
<svg width="24px" height="24px" viewBox="0 0 24 24" version="1.1" xmlns="http://www.w3.org/2000/svg" xmlns:xlink="http://www.w3.org/1999/xlink">
    <!-- Generator: Sketch 53.2 (72643) - https://sketchapp.com -->
    <title>Artboard Copy 2</title>
    <desc>Created with Sketch.</desc>
    <g id="Artboard-Copy-2" stroke="none" stroke-width="1" fill="none" fill-rule="evenodd">
        <path d="M6,0 L18,0 C21.3137085,-6.08718376e-16 24,2.6862915 24,6 L24,18 C24,21.3137085 21.3137085,24 18,24 L6,24 C2.6862915,24 4.05812251e-16,21.3137085 0,18 L0,6 C-4.05812251e-16,2.6862915 2.6862915,6.08718376e-16 6,0 Z M20.1818182,16.6666667 L8.72727273,16.6666667 C8.27540339,16.6666667 7.90909091,17.0148896 7.90909091,17.4444444 C7.90909091,17.8739992 8.27540339,18.2222222 8.72727273,18.2222222 L20.1818182,18.2222222 C20.6336875,18.2222222 21,17.8739992 21,17.4444444 C21,17.0148896 20.6336875,16.6666667 20.1818182,16.6666667 Z M20.1818182,11.2222222 L8.72727273,11.2222222 C8.27540339,11.2222222 7.90909091,11.5704452 7.90909091,12 C7.90909091,12.4295548 8.27540339,12.7777778 8.72727273,12.7777778 L20.1818182,12.7777778 C20.6336875,12.7777778 21,12.4295548 21,12 C21,11.5704452 20.6336875,11.2222222 20.1818182,11.2222222 Z M8.72727273,7.33333333 L20.1818182,7.33333333 C20.6336875,7.33333333 21,6.98511036 21,6.55555556 C21,6.12600075 20.6336875,5.77777778 20.1818182,5.77777778 L8.72727273,5.77777778 C8.27540339,5.77777778 7.90909091,6.12600075 7.90909091,6.55555556 C7.90909091,6.98511036 8.27540339,7.33333333 8.72727273,7.33333333 Z M5.04545455,15.8888889 L4.22727273,15.8888889 C3.55063636,15.8888889 3,16.4123333 3,17.0555556 L3,17.8333333 C3,18.4765556 3.55063636,19 4.22727273,19 L5.04545455,19 C5.72209091,19 6.27272727,18.4765556 6.27272727,17.8333333 L6.27272727,17.0555556 C6.27272727,16.4123333 5.72209091,15.8888889 5.04545455,15.8888889 Z M5.04545455,10.4444444 L4.22727273,10.4444444 C3.55063636,10.4444444 3,10.9678889 3,11.6111111 L3,12.3888889 C3,13.0321111 3.55063636,13.5555556 4.22727273,13.5555556 L5.04545455,13.5555556 C5.72209091,13.5555556 6.27272727,13.0321111 6.27272727,12.3888889 L6.27272727,11.6111111 C6.27272727,10.9678889 5.72209091,10.4444444 5.04545455,10.4444444 Z M6.27272727,6.16666667 C6.27272727,5.52344444 5.72209091,5 5.04545455,5 L4.22727273,5 C3.55063636,5 3,5.52344444 3,6.16666667 L3,6.94444444 C3,7.58766667 3.55063636,8.11111111 4.22727273,8.11111111 L5.04545455,8.11111111 C5.72209091,8.11111111 6.27272727,7.58766667 6.27272727,6.94444444 L6.27272727,6.16666667 Z" id="Combined-Shape" fill="#67D198"></path>
    </g>
</svg>