<?xml version="1.0" encoding="UTF-8"?>
<svg width="24px" height="24px" viewBox="0 0 24 24" version="1.1" xmlns="http://www.w3.org/2000/svg" xmlns:xlink="http://www.w3.org/1999/xlink">
    <!-- Generator: Sketch 53.2 (72643) - https://sketchapp.com -->
    <title>Artboard Copy 2</title>
    <desc>Created with Sketch.</desc>
    <g id="Artboard-Copy-2" stroke="none" stroke-width="1" fill="none" fill-rule="evenodd">
        <path d="M6,0 L18,0 C21.3137085,-6.08718376e-16 24,2.6862915 24,6 L24,18 C24,21.3137085 21.3137085,24 18,24 L6,24 C2.6862915,24 4.05812251e-16,21.3137085 0,18 L0,6 C-4.05812251e-16,2.6862915 2.6862915,6.08718376e-16 6,0 Z M19.2727273,16.6666667 L9.09090909,16.6666667 C8.68924745,16.6666667 8.36363636,17.0148896 8.36363636,17.4444444 C8.36363636,17.8739992 8.68924745,18.2222222 9.09090909,18.2222222 L19.2727273,18.2222222 C19.6743889,18.2222222 20,17.8739992 20,17.4444444 C20,17.0148896 19.6743889,16.6666667 19.2727273,16.6666667 Z M19.2727273,11.2222222 L9.09090909,11.2222222 C8.68924745,11.2222222 8.36363636,11.5704452 8.36363636,12 C8.36363636,12.4295548 8.68924745,12.7777778 9.09090909,12.7777778 L19.2727273,12.7777778 C19.6743889,12.7777778 20,12.4295548 20,12 C20,11.5704452 19.6743889,11.2222222 19.2727273,11.2222222 Z M9.09090909,7.33333333 L19.2727273,7.33333333 C19.6743889,7.33333333 20,6.98511036 20,6.55555556 C20,6.12600075 19.6743889,5.77777778 19.2727273,5.77777778 L9.09090909,5.77777778 C8.68924745,5.77777778 8.36363636,6.12600075 8.36363636,6.55555556 C8.36363636,6.98511036 8.68924745,7.33333333 9.09090909,7.33333333 Z M5.81818182,15.8888889 L5.09090909,15.8888889 C4.48945455,15.8888889 4,16.4123333 4,17.0555556 L4,17.8333333 C4,18.4765556 4.48945455,19 5.09090909,19 L5.81818182,19 C6.41963636,19 6.90909091,18.4765556 6.90909091,17.8333333 L6.90909091,17.0555556 C6.90909091,16.4123333 6.41963636,15.8888889 5.81818182,15.8888889 Z M5.81818182,10.4444444 L5.09090909,10.4444444 C4.48945455,10.4444444 4,10.9678889 4,11.6111111 L4,12.3888889 C4,13.0321111 4.48945455,13.5555556 5.09090909,13.5555556 L5.81818182,13.5555556 C6.41963636,13.5555556 6.90909091,13.0321111 6.90909091,12.3888889 L6.90909091,11.6111111 C6.90909091,10.9678889 6.41963636,10.4444444 5.81818182,10.4444444 Z M6.90909091,6.16666667 C6.90909091,5.52344444 6.41963636,5 5.81818182,5 L5.09090909,5 C4.48945455,5 4,5.52344444 4,6.16666667 L4,6.94444444 C4,7.58766667 4.48945455,8.11111111 5.09090909,8.11111111 L5.81818182,8.11111111 C6.41963636,8.11111111 6.90909091,7.58766667 6.90909091,6.94444444 L6.90909091,6.16666667 Z" id="Combined-Shape" fill="#67D198"></path>
    </g>
</svg>