<?xml version="1.0" encoding="UTF-8"?>
<svg width="24px" height="24px" viewBox="0 0 24 24" version="1.1" xmlns="http://www.w3.org/2000/svg" xmlns:xlink="http://www.w3.org/1999/xlink">
    <!-- Generator: Sketch 53.2 (72643) - https://sketchapp.com -->
    <title>Artboard Copy 4</title>
    <desc>Created with Sketch.</desc>
    <g id="Artboard-Copy-4" stroke="none" stroke-width="1" fill="none" fill-rule="evenodd">
        <path d="M6,0 L18,0 C21.3137085,-6.08718376e-16 24,2.6862915 24,6 L24,18 C24,21.3137085 21.3137085,24 18,24 L6,24 C2.6862915,24 4.05812251e-16,21.3137085 0,18 L0,6 C-4.05812251e-16,2.6862915 2.6862915,6.08718376e-16 6,0 Z M4.8,15.8888889 L14.4,15.8888889 C14.8418278,15.8888889 15.2,15.5406659 15.2,15.1111111 C15.2,14.6815563 14.8418278,14.3333333 14.4,14.3333333 L4.8,14.3333333 C4.3581722,14.3333333 4,14.6815563 4,15.1111111 C4,15.5406659 4.3581722,15.8888889 4.8,15.8888889 Z M19.2,17.4444444 L4.8,17.4444444 C4.3581722,17.4444444 4,17.7926674 4,18.2222222 C4,18.651777 4.3581722,19 4.8,19 L19.2,19 C19.6418278,19 20,18.651777 20,18.2222222 C20,17.7926674 19.6418278,17.4444444 19.2,17.4444444 Z M19.2,11.2222222 L4.8,11.2222222 C4.3581722,11.2222222 4,11.5704452 4,12 C4,12.4295548 4.3581722,12.7777778 4.8,12.7777778 L19.2,12.7777778 C19.6418278,12.7777778 20,12.4295548 20,12 C20,11.5704452 19.6418278,11.2222222 19.2,11.2222222 Z M4.8,9.66666667 L14.4,9.66666667 C14.8418278,9.66666667 15.2,9.31844369 15.2,8.88888889 C15.2,8.45933408 14.8418278,8.11111111 14.4,8.11111111 L4.8,8.11111111 C4.3581722,8.11111111 4,8.45933408 4,8.88888889 C4,9.31844369 4.3581722,9.66666667 4.8,9.66666667 Z M4,5.77777778 C4,6.20733258 4.3581722,6.55555556 4.8,6.55555556 L19.2,6.55555556 C19.6418278,6.55555556 20,6.20733258 20,5.77777778 C20,5.34822297 19.6418278,5 19.2,5 L4.8,5 C4.3581722,5 4,5.34822297 4,5.77777778 Z" id="Combined-Shape" fill="#5982FC"></path>
    </g>
</svg>