<?xml version="1.0" encoding="UTF-8"?>
<svg width="24px" height="24px" viewBox="0 0 24 24" version="1.1" xmlns="http://www.w3.org/2000/svg" xmlns:xlink="http://www.w3.org/1999/xlink">
    <!-- Generator: Sketch 53.2 (72643) - https://sketchapp.com -->
    <title>Artboard</title>
    <desc>Created with Sketch.</desc>
    <g id="Artboard" stroke="none" stroke-width="1" fill="none" fill-rule="evenodd">
        <path d="M6,0 L18,0 C21.3137085,-6.08718376e-16 24,2.6862915 24,6 L24,18 C24,21.3137085 21.3137085,24 18,24 L6,24 C2.6862915,24 4.05812251e-16,21.3137085 0,18 L0,6 C-4.05812251e-16,2.6862915 2.6862915,6.08718376e-16 6,0 Z M13.248011,11.9892371 L18.7543774,6.4828707 C19.0859775,6.13953971 19.0812352,5.59379791 18.7437186,5.25628136 C18.4062021,4.91876482 17.8604603,4.91402247 17.5171293,5.24562263 L12.0107629,10.751989 L6.50439652,5.24562263 C6.16106553,4.91402247 5.61532373,4.91876482 5.27780718,5.25628136 C4.94029064,5.59379791 4.93554829,6.13953971 5.26714845,6.4828707 L10.7735148,11.9892371 L5.26714845,17.4956035 C5.0396868,17.7152933 4.94846293,18.0406208 5.02853881,18.3465461 C5.1086147,18.6524713 5.34752866,18.8913853 5.65345394,18.9714612 C5.95937921,19.0515371 6.2847067,18.9603132 6.50439652,18.7328515 L12.0107629,13.2264852 L17.5171293,18.7328515 C17.8604603,19.0644517 18.4062021,19.0597094 18.7437186,18.7221928 C19.0812352,18.3846763 19.0859775,17.8389345 18.7543774,17.4956035 L13.248011,11.9892371 Z" id="Combined-Shape" fill="#FF5B52"></path>
    </g>
</svg>