<?xml version="1.0" encoding="UTF-8"?>
<svg width="24px" height="24px" viewBox="0 0 24 24" version="1.1" xmlns="http://www.w3.org/2000/svg" xmlns:xlink="http://www.w3.org/1999/xlink">
    <!-- Generator: Sketch 53.2 (72643) - https://sketchapp.com -->
    <title>Artboard Copy 5</title>
    <desc>Created with Sketch.</desc>
    <g id="Artboard-Copy-5" stroke="none" stroke-width="1" fill="none" fill-rule="evenodd">
        <path d="M6,0 L18,0 C21.3137085,-6.08718376e-16 24,2.6862915 24,6 L24,18 C24,21.3137085 21.3137085,24 18,24 L6,24 C2.6862915,24 4.05812251e-16,21.3137085 0,18 L0,6 C-4.05812251e-16,2.6862915 2.6862915,6.08718376e-16 6,0 Z M17.7801001,9.3040978 L12.5301241,4.21323526 C12.3895766,4.07671552 12.1988098,4 11.9998765,4 C11.8009432,4 11.6101763,4.07671552 11.4696289,4.21323526 L6.21965283,9.3040978 C6.03021361,9.48779559 5.95622917,9.75554096 6.02556873,10.0064768 C6.0949083,10.2574127 6.29703754,10.4534159 6.55581632,10.5206539 C6.8145951,10.587892 7.09070878,10.5161498 7.28014799,10.332452 L11.2498799,6.48303269 L11.2498799,19.2727339 C11.2498799,19.6743919 11.5856648,20 11.9998765,20 C12.4140882,20 12.7498731,19.6743919 12.7498731,19.2727339 L12.7498731,6.48303269 L16.719605,10.332452 C16.8599557,10.4693302 17.0507962,10.5462936 17.2498525,10.5462936 C17.4489089,10.5462936 17.6397494,10.4693302 17.7801001,10.332452 C17.9208868,10.1961642 18,10.011179 18,9.81827492 C18,9.62537079 17.9208868,9.4403856 17.7801001,9.3040978 Z" id="Combined-Shape" fill="#A798FF"></path>
    </g>
</svg>