<?xml version="1.0" encoding="UTF-8"?>
<svg width="24px" height="24px" viewBox="0 0 24 24" version="1.1" xmlns="http://www.w3.org/2000/svg" xmlns:xlink="http://www.w3.org/1999/xlink">
    <!-- Generator: Sketch 53.2 (72643) - https://sketchapp.com -->
    <title>Artboard Copy 3</title>
    <desc>Created with Sketch.</desc>
    <g id="Artboard-Copy-3" stroke="none" stroke-width="1" fill="none" fill-rule="evenodd">
        <path d="M6,0 L18,0 C21.3137085,-6.08718376e-16 24,2.6862915 24,6 L24,18 C24,21.3137085 21.3137085,24 18,24 L6,24 C2.6862915,24 4.05812251e-16,21.3137085 0,18 L0,6 C-4.05812251e-16,2.6862915 2.6862915,6.08718376e-16 6,0 Z M12.4090909,18.3998321 L11.5909091,18.3998321 C11.3649744,18.3998321 11.1818182,18.5789043 11.1818182,18.7998012 L11.1818182,19.1997704 C11.1818182,19.684533 11.6285455,20.0725031 12.1399091,19.9885096 C12.5424545,19.9221147 12.8181818,19.5501434 12.8181818,19.1509741 L12.8181818,18.7998012 C12.8181818,18.5789043 12.6350256,18.3998321 12.4090909,18.3998321 Z M13.2272727,15.2000788 L10.7727273,15.2000788 C10.0960909,15.2000788 9.54545455,15.7384372 9.54545455,16.3999862 C9.54545455,17.0615352 10.0960909,17.5998937 10.7727273,17.5998937 L13.2272727,17.5998937 C13.9039091,17.5998937 14.4545455,17.0615352 14.4545455,16.3999862 C14.4545455,15.7384372 13.9039091,15.2000788 13.2272727,15.2000788 Z M19.7727273,6.40075719 L17.3181818,6.40075719 C16.6415455,6.40075719 16.0909091,6.93911568 16.0909091,7.60066467 C16.0909091,8.26221367 16.6415455,8.80057216 17.3181818,8.80057216 L19.7727273,8.80057216 C20.4493636,8.80057216 21,8.26221367 21,7.60066467 C21,6.93911568 20.4493636,6.40075719 19.7727273,6.40075719 Z M18.9545455,9.60051048 L18.1363636,9.60051048 C17.910429,9.60051048 17.7272727,9.77958278 17.7272727,10.0004796 L17.7272727,19.1997704 C17.7272727,19.684533 18.174,20.0725031 18.6853636,19.9885096 C19.0879091,19.9221147 19.3636364,19.5501434 19.3636364,19.1509741 L19.3636364,10.0004796 C19.3636364,9.77958278 19.1804801,9.60051048 18.9545455,9.60051048 Z M5.86363636,13.6002021 L5.04545455,13.6002021 C4.81951988,13.6002021 4.63636364,13.7792744 4.63636364,14.0001713 L4.63636364,19.1997704 C4.63636364,19.684533 5.08309091,20.0725031 5.59445455,19.9885096 C5.997,19.9221147 6.27272727,19.5501434 6.27272727,19.1509741 L6.27272727,14.0001713 C6.27272727,13.7792744 6.08957103,13.6002021 5.86363636,13.6002021 Z M6.68181818,10.4004488 L4.22727273,10.4004488 C3.55063636,10.4004488 3,10.9388073 3,11.6003563 C3,12.2619053 3.55063636,12.8002638 4.22727273,12.8002638 L6.68181818,12.8002638 C7.35845455,12.8002638 7.90909091,12.2619053 7.90909091,11.6003563 C7.90909091,10.9388073 7.35845455,10.4004488 6.68181818,10.4004488 Z M11.5909091,14.4001404 L12.4090909,14.4001404 C12.6350256,14.4001404 12.8181818,14.2210681 12.8181818,14.0001713 L12.8181818,4.84967677 C12.8181818,4.45050755 12.5424545,4.07853623 12.1399091,4.01214135 C11.9020432,3.97262862 11.6584449,4.03746051 11.4738831,4.1893993 C11.2893212,4.34133809 11.1824988,4.56498666 11.1818182,4.80088054 L11.1818182,14.0001713 C11.1818182,14.2210681 11.3649744,14.4001404 11.5909091,14.4001404 Z M18.1363636,5.60081886 L18.9545455,5.60081886 C19.1804801,5.60081886 19.3636364,5.42174657 19.3636364,5.2008497 L19.3636364,4.80088054 C19.3636364,4.31611791 18.9169091,3.92894776 18.4055455,4.01214135 C18.003,4.07853623 17.7272727,4.45050755 17.7272727,4.84967677 L17.7272727,5.20164964 C17.7272727,5.30772805 17.7703733,5.40946178 17.8470927,5.48447054 C17.9238121,5.55947931 18.027866,5.6016188 18.1363636,5.6016188 L18.1363636,5.60081886 Z M4.63636364,9.20054132 C4.63636364,9.42143819 4.81951988,9.60051048 5.04545455,9.60051048 L5.86363636,9.60051048 C6.08957103,9.60051048 6.27272727,9.42143819 6.27272727,9.20054132 L6.27272727,4.80088054 C6.27228684,4.56484669 6.16556721,4.34097664 5.98097395,4.18885788 C5.7963807,4.03673912 5.55264294,3.97180587 5.31463636,4.01134141 C4.91209091,4.07773629 4.63636364,4.44970761 4.63636364,4.84887684 L4.63636364,9.20054132 Z" id="Combined-Shape" fill="#95DD62"></path>
    </g>
</svg>