<?xml version="1.0" encoding="UTF-8"?>
<svg width="24px" height="24px" viewBox="0 0 24 24" version="1.1" xmlns="http://www.w3.org/2000/svg" xmlns:xlink="http://www.w3.org/1999/xlink">
    <!-- Generator: Sketch 53.2 (72643) - https://sketchapp.com -->
    <title>Artboard Copy 6</title>
    <desc>Created with Sketch.</desc>
    <g id="Artboard-Copy-6" stroke="none" stroke-width="1" fill="none" fill-rule="evenodd">
        <path d="M6,0 L18,0 C21.3137085,-6.08718376e-16 24,2.6862915 24,6 L24,18 C24,21.3137085 21.3137085,24 18,24 L6,24 C2.6862915,24 4.05812251e-16,21.3137085 0,18 L0,6 C-4.05812251e-16,2.6862915 2.6862915,6.08718376e-16 6,0 Z M19.62679,5.65734508 C19.2183879,5.39220001 18.6536969,5.46972739 18.3485429,5.83283778 L9.66481799,16.3721498 L5.61407234,12.0872029 C5.28397486,11.7427562 4.71494315,11.698607 4.32604722,11.9872695 C4.14091056,12.1230078 4.02438405,12.3219132 4.00341066,12.5379954 C3.98243727,12.7540776 4.05883305,12.9686264 4.21493394,13.1320344 L9.01502754,18.2099484 C9.19094612,18.3945854 9.44583748,18.5004011 9.71370783,18.4999989 L9.74393065,18.4991864 C10.0230134,18.4924055 10.28363,18.3701646 10.4523889,18.1668877 L19.8241272,6.79236041 C19.9669221,6.61922658 20.0264755,6.40043126 19.9890826,6.18632493 C19.9516898,5.9722186 19.8205714,5.78124246 19.6259011,5.65734508 L19.62679,5.65734508 Z" id="Combined-Shape" fill="#73D5E9"></path>
    </g>
</svg>