<?xml version="1.0" encoding="UTF-8"?>
<svg width="24px" height="24px" viewBox="0 0 24 24" version="1.1" xmlns="http://www.w3.org/2000/svg" xmlns:xlink="http://www.w3.org/1999/xlink">
    <!-- Generator: Sketch 52.5 (67469) - http://www.bohemiancoding.com/sketch -->
    <title>stop-action</title>
    <desc>Created with Sketch.</desc>
    <g id="Page-1" stroke="none" stroke-width="1" fill="none" fill-rule="evenodd">
        <g id="stop-action" fill="#000000" fill-rule="nonzero">
            <path d="M17.6459376,15.9491383 C17.9578853,16.2504275 18.0829925,16.6965914 17.973174,17.1161466 C17.8633555,17.5357017 17.5357017,17.8633555 17.1161466,17.973174 C16.6965914,18.0829925 16.2504275,17.9578853 15.9491383,17.6459376 L11.9975399,13.6943392 L8.04594156,17.6459376 C7.57508709,18.100704 6.82664033,18.0942002 6.36375997,17.6313199 C5.9008796,17.1684395 5.8943758,16.4199927 6.34914226,15.9491383 L10.3007406,11.9975399 L6.34914226,8.04594156 C5.8943758,7.57508709 5.9008796,6.82664033 6.36375997,6.36375997 C6.82664033,5.9008796 7.57508709,5.8943758 8.04594156,6.34914226 L11.9975399,10.3007406 L15.9491383,6.34914226 C16.4199927,5.8943758 17.1684395,5.9008796 17.6313199,6.36375997 C18.0942002,6.82664033 18.100704,7.57508709 17.6459376,8.04594156 L13.6943392,11.9975399 L17.6459376,15.9491383 Z M18.439,0.732 C17.9710678,0.261686568 17.3344393,-0.00189489418 16.671,7.77156117e-16 L7.329,7.77156117e-16 C6.66556069,-0.00189489418 6.02893224,0.261686568 5.561,0.732 L0.732,5.561 C0.261744468,6.02856159 -0.00185068697,6.664863 3.48062779e-17,7.328 L3.48062779e-17,16.672 C-0.00185068697,17.335137 0.261744468,17.9714384 0.732,18.439 L5.561,23.268 C6.02893224,23.7383134 6.66556069,24.0018949 7.329,24 L16.671,24 C17.3344393,24.0018949 17.9710678,23.7383134 18.439,23.268 L23.268,18.439 C23.7382555,17.9714384 24.0018507,17.335137 24,16.672 L24,7.328 C24.0018507,6.664863 23.7382555,6.02856159 23.268,5.561 L18.439,0.732 Z" id="Shape"></path>
        </g>
    </g>
</svg>