<svg xmlns="http://www.w3.org/2000/svg" viewBox="0 0 32 32">
    <path d="M11 19a1 1 0 0 1-1 1H5a1 1 0 0 1 0-2h5a1 1 0 0 1 1 1m0-6a1 1 0 0 1-1 1H5a1 1 0 0 1 0-2h5a1 1 0 0 1 1 1M4 7a1 1 0 0 1 1-1h18a1 1 0 0 1 0 2H5a1 1 0 0 1-1-1m11 10a4 4 0 1 1 4 4 4 4 0 0 1-4-4m12.56 6.46c-.277-.285-1.736-1.593-3.259-2.792a.503.503 0 0 1-.114-.655 6.026 6.026 0 0 0 .657-4.401 5.954 5.954 0 0 0-4.475-4.46 6.006 6.006 0 1 0 1.644 11.035.503.503 0 0 1 .655.114c1.199 1.523 2.507 2.982 2.792 3.259a1.485 1.485 0 1 0 2.1-2.1"/>
</svg>
