<?xml version="1.0" encoding="UTF-8"?>
<svg width="24px" height="22px" viewBox="0 0 24 22" version="1.1" xmlns="http://www.w3.org/2000/svg" xmlns:xlink="http://www.w3.org/1999/xlink">
    <!-- Generator: Sketch 52.5 (67469) - http://www.bohemiancoding.com/sketch -->
    <title>warning</title>
    <desc>Created with Sketch.</desc>
    <g id="Page-1" stroke="none" stroke-width="1" fill="none" fill-rule="evenodd">
        <g id="warning" fill="#000000" fill-rule="nonzero">
            <path d="M12,19 C11.1715729,19 10.5,18.3284271 10.5,17.5 C10.5,16.6715729 11.1715729,16 12,16 C12.8284271,16 13.5,16.6715729 13.5,17.5 C13.4983495,18.3277425 12.8277425,18.9983495 12,19 M10.9235297,6.38477769 C11.5250926,5.87169125 12.4749074,5.87169125 13.0764703,6.38477769 C13.358987,6.635998 13.5120141,6.9798945 13.4992623,7.33491442 L13.2833685,13.3488934 C13.2671686,13.7127073 12.9283593,13.9990894 12.5187447,13.9951996 L11.4812553,13.9951996 C11.0730647,13.9984422 10.7351701,13.7140109 10.7166315,13.3515586 L10.5007377,7.33491442 C10.4879859,6.9798945 10.641013,6.635998 10.9235297,6.38477769 M23.752,19.042 L13.662,0.975 C13.3254908,0.37295407 12.6897085,-3.71374484e-05 12,-3.71374484e-05 C11.3102915,-3.71374484e-05 10.6745092,0.37295407 10.338,0.975 L0.248,19.042 L0.246,19.047 C-0.0918132344,19.6669452 -0.0773685199,20.4191487 0.283996747,21.0256675 C0.645362014,21.6321862 1.29999293,22.0029653 2.006,22.001 L21.996,22.001 C22.702549,22.0019204 23.3571013,21.629791 23.7176847,21.0221794 C24.078268,20.4145677 24.091314,19.6617405 23.752,19.042" id="Shape"></path>
        </g>
    </g>
</svg>